<?xml version="1.0" standalone="no"?>
<!DOCTYPE svg PUBLIC "-//W3C//DTD SVG 20010904//EN"
 "http://www.w3.org/TR/2001/REC-SVG-20010904/DTD/svg10.dtd">
<svg version="1.0" xmlns="http://www.w3.org/2000/svg"
 width="35.000000pt" height="35.000000pt" viewBox="0 0 35.000000 35.000000"
 preserveAspectRatio="xMidYMid meet">
<metadata>
Created by potrace 1.15, written by Peter Selinger 2001-2017
</metadata>
<g transform="translate(0.000000,35.000000) scale(0.100000,-0.100000)"
fill="#000000" stroke="none">
<path d="M7 344 c-4 -4 -7 -74 -7 -156 0 -181 4 -188 104 -188 75 0 100 17 72
49 -16 17 -16 19 6 24 18 5 20 9 10 19 -7 7 -24 12 -40 13 -26 0 -27 2 -30 60
-6 107 -42 113 -42 7 0 -75 5 -87 40 -101 22 -9 21 -10 -15 -8 l-40 2 -5 140
c-5 131 -6 140 -25 143 -12 2 -24 0 -28 -4z"/>
<path d="M257 243 c-16 -16 -5 -32 26 -35 23 -2 33 -9 35 -23 2 -17 -3 -20
-40 -20 -37 0 -43 -3 -46 -22 -3 -20 0 -22 27 -17 55 11 81 -35 41 -71 -17
-15 -24 -16 -45 -7 -14 6 -25 18 -25 27 0 13 -3 13 -20 3 -26 -16 -25 -24 4
-53 21 -21 33 -24 80 -22 l56 2 0 112 c0 101 -2 113 -19 123 -22 11 -64 13
-74 3z"/>
</g>
</svg>
